<svg xmlns="http://www.w3.org/2000/svg" version="1.0" width="1006.000000pt" height="992.000000pt" viewBox="0 0 1006.000000 992.000000" preserveAspectRatio="xMidYMid meet">

<g transform="translate(0.000000,992.000000) scale(0.100000,-0.100000)" fill="#1b265b" stroke="none">
<path d="M4590 9449 c-47 -4 -117 -7 -157 -8 l-71 -1 5 -62 c3 -35 7 -65 10 -67 4 -6 88 -2 124 5 26 5 26 5 33 -73 3 -43 11 -188 16 -323 6 -135 13 -260 16 -277 5 -33 5 -33 64 -33 l60 0 0 48 c0 26 -4 106 -9 177 -5 72 -13 209 -16 306 l-7 176 82 7 82 8 -6 30 c-3 17 -6 46 -6 64 l0 34 -67 -2 c-38 0 -106 -4 -153 -9z" fill="#1b265b"/>
<path d="M3952 9373 c-18 -3 -36 -11 -38 -18 -6 -14 144 -786 156 -805 4 -6 26 -6 63 2 43 9 57 16 57 29 0 10 -22 123 -49 251 -27 128 -61 296 -76 373 -37 197 -24 179 -113 168z" fill="#1b265b"/>
<path d="M6166 9217 c-170 -483 -256 -748 -243 -752 159 -56 331 -115 337 -115 7 0 53 123 47 125 -1 1 -48 16 -104 35 -56 18 -107 36 -113 40 -15 9 -16 5 103 350 52 151 98 285 101 296 6 19 0 24 -53 42 l-60 20 -15 -41z" fill="#1b265b"/>
<path d="M3316 9205 c-58 -20 -88 -46 -114 -96 -19 -36 -22 -54 -18 -99 14 -144 75 -205 266 -264 134 -41 176 -75 187 -153 6 -49 -23 -90 -73 -99 -30 -5 -40 -2 -63 20 -15 14 -35 48 -45 76 -10 27 -23 50 -28 50 -29 0 -108 -36 -108 -50 0 -33 59 -137 98 -172 63 -56 136 -62 227 -16 62 31 94 67 111 125 14 47 14 59 -1 115 -21 82 -67 152 -120 183 -23 14 -93 41 -155 61 -131 41 -180 78 -180 133 0 44 39 81 83 81 37 0 63 -23 91 -77 9 -18 19 -33 22 -33 3 0 27 9 54 21 46 20 48 22 39 47 -50 133 -155 189 -273 147z" fill="#1b265b"/>
<path d="M6882 8937 c-79 -29 -159 -131 -260 -333 -136 -271 -124 -387 46 -465 99 -45 180 -18 265 86 65 82 215 381 229 460 20 117 -30 200 -147 244 -62 23 -85 25 -133 8z m141 -148 c23 -25 27 -36 22 -62 -19 -90 -162 -368 -228 -443 -41 -47 -71 -55 -121 -33 -61 28 -56 99 19 254 149 306 224 375 308 284z" fill="#1b265b"/>
<path d="M2705 8914 c-22 -13 -39 -30 -37 -37 2 -6 67 -116 144 -244 77 -127 139 -236 137 -242 -2 -6 -40 22 -85 62 -44 40 -121 106 -169 147 -49 41 -115 98 -148 127 l-59 52 -49 -25 c-28 -14 -52 -31 -56 -39 -3 -9 42 -94 104 -197 60 -101 154 -257 208 -348 54 -91 99 -167 101 -169 5 -6 56 17 82 37 l22 17 -151 249 c-83 136 -149 250 -146 252 6 6 39 -21 242 -196 99 -86 193 -166 208 -177 l29 -22 49 27 c27 15 49 33 49 39 0 7 -77 142 -171 300 -226 379 -242 406 -254 409 -5 2 -28 -8 -50 -22z" fill="#1b265b"/>
<path d="M7563 8480 c-87 -44 -281 -282 -360 -440 -30 -60 -37 -87 -38 -132 0 -65 16 -93 84 -145 45 -35 102 -44 143 -22 29 16 35 3 13 -33 l-18 -31 28 -24 c15 -13 31 -23 35 -21 8 3 260 337 266 353 2 5 -13 21 -33 35 -20 14 -54 40 -76 58 -21 17 -45 32 -52 32 -7 0 -27 -19 -45 -42 l-31 -43 30 -26 c17 -14 31 -32 31 -40 0 -23 -76 -105 -115 -123 -40 -19 -68 -14 -102 17 -36 32 -31 89 13 162 49 82 161 228 228 298 49 50 60 57 94 57 83 0 122 -72 83 -153 -12 -24 -21 -49 -21 -55 0 -6 19 -24 41 -39 41 -27 42 -27 56 -8 98 131 79 257 -53 341 -73 47 -140 55 -201 24z" fill="#1b265b"/>
<path d="M1881 8330 c-34 -28 -61 -56 -61 -62 0 -6 75 -147 166 -312 92 -166 182 -329 201 -363 19 -35 37 -63 40 -63 8 0 77 61 86 76 4 7 -13 45 -43 95 -27 45 -50 86 -50 89 0 7 93 89 117 103 6 4 45 -22 89 -58 43 -36 81 -65 84 -65 3 1 27 20 53 44 l48 43 -233 185 c-128 102 -276 220 -328 261 -52 42 -98 76 -102 77 -4 0 -34 -23 -67 -50z m185 -188 c44 -37 100 -85 127 -106 26 -21 47 -44 47 -51 0 -7 -19 -29 -43 -48 l-43 -35 -81 131 c-128 210 -128 214 -7 109z" fill="#1b265b"/>
<path d="M7948 7754 c-156 -157 -284 -292 -286 -300 -4 -18 80 -96 89 -83 3 5 132 137 287 293 155 156 282 288 282 295 0 12 -69 81 -82 81 -4 0 -135 -129 -290 -286z" fill="#1b265b"/>
<path d="M3747 8006 c-64 -23 -139 -85 -747 -621 -80 -70 -146 -133 -148 -140 -10 -40 42 -9 257 152 288 216 349 259 608 438 111 77 202 145 203 151 0 13 -66 34 -106 34 -16 -1 -46 -7 -67 -14z" fill="#1b265b"/>
<path d="M5562 7925 c-59 -26 -372 -267 -372 -287 0 -10 5 -18 11 -18 14 0 416 177 447 197 19 12 22 20 17 46 -8 34 -41 77 -59 77 -6 -1 -26 -7 -44 -15z" fill="#1b265b"/>
<path d="M1391 7842 c-33 -22 -221 -223 -221 -236 0 -2 122 -111 272 -242 362 -319 345 -304 355 -304 12 0 75 79 71 89 -2 5 -63 61 -135 125 -128 113 -132 118 -118 139 18 27 77 75 96 77 47 7 71 -6 173 -90 61 -50 115 -90 121 -90 7 0 33 23 58 50 l46 50 -32 14 c-18 7 -70 43 -114 79 -118 97 -138 107 -206 107 l-59 0 7 29 c9 42 -16 93 -72 147 -89 87 -168 105 -242 56z m138 -136 c42 -31 81 -84 81 -110 0 -21 -75 -126 -91 -126 -18 0 -179 145 -179 161 0 9 20 35 45 58 53 49 94 54 144 17z" fill="#1b265b"/>
<path d="M3945 7706 c-23 -23 -25 -32 -25 -128 -1 -122 -14 -235 -36 -301 -9 -26 -44 -90 -77 -142 -34 -51 -73 -113 -87 -136 -21 -35 -74 -74 -330 -244 -168 -111 -353 -233 -412 -271 -59 -38 -312 -204 -562 -369 -250 -165 -463 -305 -473 -312 -17 -11 -17 -12 -1 -12 26 -1 174 67 516 238 166 83 304 151 306 151 1 0 162 78 357 174 195 95 379 182 409 193 93 34 231 66 241 56 15 -15 31 -125 25 -172 -13 -96 -66 -141 -246 -214 -132 -52 -264 -110 -388 -168 -48 -23 -139 -65 -202 -94 -63 -29 -168 -78 -234 -109 -65 -31 -120 -56 -122 -56 -3 0 -80 -35 -172 -79 -92 -43 -180 -84 -197 -92 l-30 -13 32 -4 c22 -2 148 34 375 109 189 61 385 124 436 140 50 16 136 43 190 60 53 17 126 40 162 50 65 20 277 49 358 49 l42 0 0 -159 c0 -143 -2 -160 -17 -165 -10 -3 -81 -21 -158 -42 -77 -20 -216 -58 -310 -85 -93 -26 -224 -62 -290 -79 -66 -17 -198 -54 -293 -81 -95 -27 -230 -63 -300 -80 -246 -60 -158 -55 298 14 162 25 372 55 465 67 94 11 204 25 245 31 41 5 125 13 186 16 l110 6 35 -31 c33 -30 34 -32 38 -122 4 -106 -7 -141 -54 -170 -41 -25 -45 -26 -588 -105 -246 -35 -531 -78 -635 -94 -168 -27 -502 -74 -822 -116 -63 -8 -135 -18 -159 -21 l-44 -6 7 252 c4 162 3 311 -5 419 -18 268 -1 300 255 475 865 590 1102 752 1431 980 44 31 171 119 282 196 181 126 204 145 232 193 17 30 31 57 31 61 0 11 -57 6 -100 -9 -37 -13 -193 -123 -600 -420 -516 -379 -652 -479 -939 -691 -178 -131 -369 -272 -425 -313 -212 -153 -206 -139 -206 -466 0 -401 27 -1065 44 -1082 2 -2 43 -8 91 -13 48 -5 89 -11 92 -14 8 -8 43 -151 43 -178 l0 -27 683 -3 c375 -2 1903 -2 3395 0 l2712 3 0 23 c0 16 -8 26 -22 31 -13 5 -200 10 -415 12 -309 4 -393 7 -393 17 0 24 40 129 65 172 34 59 100 112 160 130 38 11 75 13 158 8 97 -6 109 -5 129 12 46 41 48 62 48 428 l0 345 -32 5 c-18 3 -105 9 -194 14 -88 5 -166 12 -172 16 -8 5 -12 43 -12 112 l0 104 33 1 c100 1 238 17 251 28 23 19 13 28 -78 71 -109 52 -167 104 -208 187 -31 63 -33 75 -38 199 -4 114 -8 137 -26 161 -31 42 -79 71 -137 82 -46 8 -743 28 -919 25 -146 -2 -245 -44 -291 -122 -44 -74 -49 -121 -54 -485 l-5 -348 -192 3 c-155 2 -197 6 -222 20 -37 20 -54 55 -54 114 0 35 6 51 25 70 42 42 130 77 197 78 l59 1 -38 32 c-61 52 -171 109 -273 144 -82 28 -112 33 -218 37 -134 4 -186 -4 -268 -44 -52 -25 -134 -89 -134 -103 0 -5 46 -11 103 -14 327 -20 429 -140 487 -577 25 -183 60 -354 91 -434 27 -74 80 -128 153 -155 54 -20 75 -21 439 -21 210 0 387 -4 394 -8 9 -6 133 -302 133 -318 0 -2 -250 -4 -555 -4 -437 0 -555 3 -555 13 0 6 9 50 20 97 28 122 28 121 -35 165 -78 53 -140 126 -165 192 -11 30 -36 137 -56 237 -43 222 -89 404 -119 471 -27 62 -97 132 -146 146 -45 14 -95 0 -157 -45 -53 -37 -96 -122 -142 -276 -48 -164 -62 -272 -58 -450 l3 -155 -348 -6 c-191 -4 -358 -10 -371 -13 -13 -3 -79 -6 -148 -7 -108 -1 -130 1 -166 20 -47 24 -87 84 -97 148 -7 46 -45 93 -45 56 0 -10 -7 -121 -15 -247 -16 -240 -23 -269 -69 -300 -55 -36 -106 -6 -145 86 -49 116 -66 325 -36 443 27 104 50 140 118 185 34 22 70 40 81 40 35 0 138 -64 177 -110 21 -25 49 -58 63 -75 l24 -30 199 3 c267 4 641 20 653 27 6 4 10 73 10 167 0 89 -2 159 -5 156 -3 -3 -12 -50 -20 -104 -10 -62 -21 -103 -30 -110 -29 -22 -368 -53 -583 -54 l-83 0 -72 148 c-40 81 -79 172 -86 202 -11 44 -15 237 -19 972 -5 998 -1 1089 42 1087 11 0 246 -75 521 -167 383 -128 500 -171 499 -183 -1 -8 -23 -43 -49 -77 -45 -58 -48 -64 -46 -121 2 -115 58 -348 99 -416 22 -36 118 -86 178 -93 24 -2 63 2 90 11 27 9 92 23 144 31 52 8 165 26 250 40 308 50 667 105 764 117 95 11 380 8 546 -7 50 -5 62 -3 54 6 -7 6 -61 17 -122 24 -119 14 -143 25 -201 91 -17 20 -47 69 -66 110 -30 62 -43 79 -81 101 -24 14 -61 31 -82 36 -20 5 -253 13 -517 18 -570 11 -766 19 -782 32 -9 7 -10 16 -2 29 9 18 35 19 692 21 598 3 682 5 682 18 0 8 -20 25 -45 37 -39 19 -368 144 -615 233 -238 86 -259 96 -266 126 -4 16 -12 106 -17 200 -5 95 -13 177 -16 183 -4 6 -18 11 -31 11 -28 0 -31 -9 -39 -120 -10 -159 -28 -325 -35 -333 -5 -4 -20 -5 -35 -1 -29 7 -29 8 -44 127 -5 43 -12 80 -15 83 -2 3 -159 11 -348 19 -189 8 -438 19 -554 25 -115 5 -286 13 -380 16 -231 7 -215 2 -215 75 0 69 -19 122 -49 139 -18 9 -25 7 -46 -14z m29 -523 c27 -187 25 -539 -4 -668 -13 -61 -50 -129 -72 -133 -24 -5 -29 36 -35 313 -4 212 -3 264 12 334 20 101 40 159 62 183 24 27 30 23 37 -29z m3251 -1392 c0 -367 -1 -383 -19 -397 -11 -8 -30 -14 -42 -14 -47 0 -48 7 -40 378 4 191 9 356 12 368 5 21 60 55 79 50 6 -2 10 -139 10 -385z m244 370 c21 -13 33 -212 29 -486 -3 -226 -3 -231 -27 -262 -29 -39 -48 -41 -86 -11 l-28 22 5 350 6 350 26 23 c29 24 52 29 75 14z m-769 -26 c22 -57 30 -238 24 -503 l-7 -273 -26 6 c-14 4 -39 14 -56 24 l-30 17 -8 305 c-5 167 -5 337 -2 377 l7 72 44 0 c38 0 46 -4 54 -25z m1002 -15 c17 -33 18 -57 16 -355 l-3 -320 -29 -37 c-15 -21 -34 -38 -41 -38 -7 0 -18 36 -29 98 -45 261 -37 521 21 655 20 46 39 45 65 -3z m-735 -9 c23 -34 23 -38 23 -338 0 -331 -4 -355 -54 -383 -27 -14 -29 -13 -57 18 l-29 32 0 323 0 322 31 33 c37 40 56 38 86 -7z m-1554 -707 c36 -19 75 -51 87 -75 24 -44 80 -542 80 -710 0 -99 -4 -125 -29 -196 -51 -146 -111 -223 -174 -223 -26 0 -44 12 -99 70 -47 49 -71 82 -78 111 -25 94 5 111 86 48 l54 -42 21 24 c104 119 135 411 67 619 -19 61 -82 170 -96 170 -4 0 -32 -48 -62 -105 -69 -132 -84 -135 -88 -16 -4 124 34 246 98 310 36 36 81 41 133 15z m2670 -263 c23 -16 52 -40 64 -53 l23 -24 -44 -43 -45 -44 -103 -9 c-57 -4 -508 -7 -1003 -6 l-900 3 -3 93 -3 92 378 1 c208 1 560 5 783 8 223 4 496 8 608 9 l203 2 42 -29z m-4516 -301 c21 -33 26 -56 35 -175 23 -302 -33 -442 -195 -490 -60 -18 -387 -22 -387 -5 0 9 53 154 80 217 10 24 35 31 152 41 l73 7 -4 130 c-5 191 6 233 81 312 l61 63 39 -32 c22 -17 51 -48 65 -68z m-1413 -152 c35 -116 48 -228 37 -306 -13 -90 -50 -187 -71 -187 -18 0 -76 94 -92 150 -19 62 -14 191 9 251 22 55 79 144 93 144 5 0 16 -24 24 -52z m-252 -46 c19 -56 23 -87 23 -187 0 -130 -19 -255 -40 -255 -43 0 -108 106 -119 195 -7 61 5 141 34 217 23 61 57 111 70 103 5 -3 19 -36 32 -73z m3273 -338 l74 -99 -95 -3 c-52 -1 -137 -1 -189 0 l-95 3 101 113 c89 100 103 112 116 99 8 -8 48 -59 88 -113z" fill="#1b265b"/>
<path d="M8530 7591 c-73 -23 -147 -80 -178 -136 -12 -22 -17 -70 -22 -185 -5 -136 -8 -160 -27 -190 -44 -72 -115 -89 -164 -41 -46 46 -40 78 26 140 30 29 55 55 55 59 0 4 -17 27 -39 52 l-38 44 -52 -43 c-28 -24 -63 -63 -77 -87 -23 -39 -26 -53 -22 -109 3 -52 10 -72 34 -106 43 -59 100 -98 156 -105 90 -12 218 69 261 166 17 36 21 72 24 185 3 77 9 153 15 168 24 63 97 87 135 45 44 -48 39 -83 -19 -145 l-30 -31 33 -46 c18 -25 35 -46 39 -46 15 0 101 99 115 132 28 69 14 142 -40 205 -50 59 -130 91 -185 74z" fill="#1b265b"/>
<path d="M873 7212 c-42 -64 -96 -148 -119 -186 l-43 -69 45 -28 c24 -16 48 -29 52 -29 4 0 25 27 46 61 25 38 44 58 53 55 15 -6 56 -33 375 -242 l217 -142 30 47 c17 26 31 52 31 57 0 5 -69 53 -152 107 -298 191 -409 264 -425 279 -14 14 -11 21 21 69 20 30 36 61 36 69 0 8 -21 27 -46 42 l-44 28 -77 -118z" fill="#1b265b"/>
<path d="M8983 7023 c-24 -14 -43 -29 -43 -34 0 -6 14 -36 31 -69 17 -33 28 -64 25 -69 -3 -5 -45 -30 -94 -56 -48 -26 -185 -101 -304 -167 l-217 -120 21 -42 c35 -70 34 -70 102 -33 33 19 133 74 221 122 88 48 199 110 247 137 48 27 92 47 97 43 5 -3 22 -30 37 -61 15 -31 33 -58 40 -61 7 -2 27 3 46 13 58 29 60 33 39 68 -10 17 -35 63 -56 101 -89 164 -127 231 -138 242 -9 9 -22 6 -54 -14z" fill="#1b265b"/>
<path d="M4855 6723 c-28 -6 -164 -62 -197 -81 -40 -23 -52 -69 -44 -171 8 -101 34 -275 47 -307 11 -31 63 -39 145 -24 103 20 154 76 154 172 0 47 -67 400 -78 409 -4 3 -16 4 -27 2z" fill="#1b265b"/>
<path d="M520 6609 c-11 -24 -20 -50 -20 -57 0 -7 21 -23 48 -34 118 -52 429 -195 447 -205 11 -6 17 -14 14 -17 -4 -5 -252 24 -469 54 -127 17 -127 17 -157 -45 -18 -36 -24 -58 -17 -65 9 -9 160 -79 494 -230 58 -26 134 -61 169 -78 34 -18 68 -32 75 -32 7 0 22 21 34 46 18 36 20 49 11 60 -6 8 -15 14 -20 14 -4 0 -47 18 -96 41 -48 23 -108 49 -133 59 -152 61 -323 159 -240 137 14 -4 99 -16 190 -27 91 -11 217 -26 280 -34 63 -8 115 -14 116 -13 1 1 13 28 27 59 19 42 22 59 14 66 -7 5 -97 48 -202 95 -104 47 -264 120 -355 162 -91 42 -171 79 -178 82 -7 3 -20 -12 -32 -38z" fill="#1b265b"/>
<path d="M9125 6250 c-126 -48 -291 -111 -365 -140 -74 -28 -138 -54 -142 -58 -11 -11 24 -112 37 -112 13 0 152 51 335 123 63 25 153 59 200 77 242 91 235 88 233 110 -5 42 -32 90 -50 89 -10 0 -121 -40 -248 -89z" fill="#1b265b"/>
<path d="M211 5833 c-6 -13 -14 -41 -17 -62 l-6 -38 73 -22 c76 -23 547 -167 654 -201 33 -10 63 -16 66 -12 13 15 31 103 23 111 -5 5 -144 50 -309 101 -165 50 -339 104 -387 119 l-86 28 -11 -24z" fill="#1b265b"/>
<path d="M9310 5790 c-170 -21 -397 -86 -473 -136 -44 -29 -76 -90 -77 -145 0 -56 27 -132 57 -161 55 -51 89 -61 186 -55 49 2 93 9 99 15 7 7 6 27 -1 64 l-12 54 -87 -4 c-79 -4 -89 -2 -106 17 -24 26 -25 75 -2 100 28 31 129 63 331 106 206 43 275 31 275 -48 0 -40 -29 -71 -85 -90 -22 -8 -40 -18 -40 -23 1 -5 5 -31 9 -57 l9 -49 35 7 c74 14 151 64 178 117 34 66 1 207 -60 256 -27 21 -108 43 -149 41 -12 -1 -51 -5 -87 -9z" fill="#1b265b"/>
<path d="M9158 4703 c-45 -5 -42 5 -58 -193 -49 -621 -255 -1276 -567 -1802 -379 -641 -966 -1220 -1603 -1580 -423 -240 -893 -404 -1360 -477 -287 -45 -415 -54 -740 -54 -326 0 -455 9 -730 54 -729 117 -1400 432 -1995 937 -127 108 -428 409 -526 527 -358 427 -609 878 -778 1395 -111 341 -176 663 -212 1053 l-13 137 -123 0 -123 0 5 -57 c60 -606 160 -1051 342 -1513 434 -1107 1263 -1926 2471 -2439 585 -249 1160 -371 1749 -371 839 0 1634 257 2430 785 898 596 1484 1346 1798 2300 67 202 148 542 180 756 16 108 41 329 51 462 l6 87 -83 -2 c-46 -1 -101 -3 -121 -5z" fill="#1b265b"/>
<path d="M2200 2860 l0 -362 138 4 c163 6 194 16 227 72 35 61 47 153 43 338 -3 146 -5 168 -26 210 -39 80 -71 92 -239 96 l-143 4 0 -362z m260 236 c30 -33 39 -86 40 -241 0 -209 -22 -255 -122 -255 l-58 0 0 260 0 260 58 0 c49 0 62 -4 82 -24z" fill="#1b265b"/>
<path d="M2730 2860 l0 -360 60 0 60 0 0 160 0 160 49 0 c111 0 131 -31 131 -205 l0 -115 71 0 c56 0 69 3 61 13 -16 20 -32 114 -32 193 0 78 -12 115 -49 148 -27 24 -26 30 3 45 36 19 46 53 46 147 0 84 -1 87 -33 119 -45 45 -89 55 -239 55 l-128 0 0 -360z m277 235 c20 -28 26 -60 19 -98 -11 -60 -26 -71 -105 -75 l-71 -4 0 102 0 102 71 -4 c56 -3 74 -8 86 -23z" fill="#1b265b"/>
<path d="M3230 2860 l0 -360 60 0 60 0 0 360 0 360 -60 0 -60 0 0 -360z" fill="#1b265b"/>
<path d="M3443 3198 c3 -13 36 -175 73 -360 l68 -338 77 0 78 0 7 38 c28 163 119 630 130 665 5 15 -2 17 -55 17 -55 0 -61 -2 -66 -22 -8 -35 -62 -386 -70 -449 -3 -31 -12 -65 -20 -75 -17 -23 -13 -41 -60 261 -20 127 -39 242 -42 258 -5 26 -8 27 -65 27 -57 0 -60 -1 -55 -22z" fill="#1b265b"/>
<path d="M3960 2860 l0 -360 168 2 167 3 3 47 3 47 -113 3 -113 3 -3 108 -3 107 101 0 100 0 0 50 0 50 -100 0 -100 0 0 100 0 100 110 0 110 0 0 50 0 50 -165 0 -165 0 0 -360z" fill="#1b265b"/>
<path d="M4840 2859 l0 -361 133 4 c110 2 138 6 165 23 56 34 79 106 74 232 -2 34 -10 51 -38 83 l-36 40 25 30 c48 57 48 203 1 260 -34 39 -78 50 -211 50 l-113 0 0 -361z m224 245 c22 -22 29 -57 22 -109 -8 -53 -34 -75 -88 -75 l-38 0 0 100 0 100 44 0 c27 0 51 -6 60 -16z m11 -309 c20 -19 25 -34 25 -77 0 -29 -3 -63 -6 -74 -7 -27 -44 -44 -94 -44 l-40 0 0 110 0 110 45 0 c35 0 52 -6 70 -25z" fill="#1b265b"/>
<path d="M5286 3198 c3 -12 42 -105 85 -207 l79 -186 0 -152 0 -153 54 0 55 0 3 163 3 162 78 185 c44 102 81 191 84 198 4 9 -11 12 -55 12 l-60 0 -26 -67 c-14 -38 -36 -97 -48 -132 -13 -34 -27 -63 -33 -63 -5 -1 -30 58 -55 131 l-45 131 -63 0 c-60 0 -63 -1 -56 -22z" fill="#1b265b"/>
<path d="M6160 3170 l0 -50 75 0 75 0 0 -310 0 -310 50 0 50 0 0 310 0 310 75 0 75 0 0 50 0 50 -200 0 -200 0 0 -50z" fill="#1b265b"/>
<path d="M6630 2860 l0 -360 58 0 57 0 0 158 0 157 93 3 92 3 0 -161 0 -160 55 0 55 0 0 360 0 360 -55 0 -55 0 0 -150 0 -151 -92 3 -93 3 0 148 0 147 -57 0 -58 0 0 -360z" fill="#1b265b"/>
<path d="M7170 2860 l0 -360 165 0 165 0 0 50 0 50 -110 0 -110 0 0 110 0 110 100 0 100 0 0 50 0 50 -100 0 -100 0 0 100 0 100 105 0 105 0 0 50 0 50 -160 0 -160 0 0 -360z" fill="#1b265b"/>
<path d="M4995 2168 c-77 -44 -108 -163 -65 -247 13 -26 48 -60 108 -104 101 -74 129 -105 138 -152 7 -37 -15 -89 -41 -99 -32 -12 -92 -6 -106 11 -8 9 -16 46 -19 82 l-5 66 -50 0 -50 0 3 -67 c1 -36 9 -82 17 -102 30 -72 115 -107 220 -92 63 10 119 60 134 121 32 128 -8 206 -156 306 -103 70 -130 133 -78 184 49 50 111 15 123 -70 l7 -50 50 0 50 0 -3 50 c-3 62 -35 128 -75 157 -47 34 -148 37 -202 6z" fill="#1b265b"/>
<path d="M3998 2174 c-5 -4 -8 -167 -8 -362 l0 -354 138 4 c183 4 211 22 234 146 16 85 -2 164 -43 194 -32 24 -37 43 -14 52 45 17 61 168 25 241 -31 64 -64 77 -204 83 -67 2 -124 1 -128 -4z m213 -113 c21 -17 24 -28 24 -86 0 -74 -11 -90 -72 -101 -59 -11 -63 -5 -63 99 0 52 3 97 7 100 14 14 81 6 104 -12z m19 -306 c39 -35 33 -162 -10 -185 -10 -5 -41 -10 -69 -10 l-51 0 0 104 c0 74 4 106 13 110 23 10 98 -2 117 -19z" fill="#1b265b"/>
<path d="M4477 2173 c-4 -3 -7 -165 -7 -360 l0 -353 170 0 170 0 0 50 0 50 -115 0 -115 0 0 104 c0 85 3 105 16 110 9 3 56 6 105 6 l90 0 -3 46 -3 46 -100 2 -100 1 0 100 0 100 108 3 107 3 0 49 0 50 -158 0 c-87 0 -162 -3 -165 -7z" fill="#1b265b"/>
<path d="M5350 2130 l0 -49 68 -3 67 -3 3 -307 2 -308 55 0 55 0 0 310 0 310 76 0 c65 0 75 2 70 16 -3 9 -6 31 -6 49 l0 34 -195 1 -195 0 0 -50z" fill="#1b265b"/>
</g>
</svg>